<mxfile host="app.diagrams.net" modified="2024-02-05T05:41:11.507Z" agent="Mozilla/5.0 (Windows NT 10.0; Win64; x64) AppleWebKit/537.36 (KHTML, like Gecko) Chrome/120.0.0.0 Safari/537.36" version="23.1.1" etag="raERw9veEsZDuIVhCofG" type="github">
  <diagram name="Page-1" id="M5an8_kfP79iMfRamWLX">
    <mxGraphModel>
      <root>
        <mxCell id="0" />
        <mxCell id="1" parent="0" />
      </root>
    </mxGraphModel>
  </diagram>
</mxfile>
